Coordinates
version=1
nRows=19
nColumns=36
inDegrees=yes

Units are S.I. units (second, meters, Newtons, ...)
If the header above contains a line with 'inDegrees', this indicates whether rotational values are in degrees (yes) or radians (no).

endheader
time	pelvis_tilt	pelvis_list	pelvis_rotation	pelvis_tx	pelvis_ty	pelvis_tz	hip_flexion_r	hip_adduction_r	hip_rotation_r	knee_angle_r	knee_angle_r_beta	ankle_angle_r	subtalar_angle_r	mtp_angle_r	hip_flexion_l	hip_adduction_l	hip_rotation_l	knee_angle_l	knee_angle_l_beta	ankle_angle_l	subtalar_angle_l	mtp_angle_l	lumbar_extension	lumbar_bending	lumbar_rotation	arm_flex_r	arm_add_r	arm_rot_r	elbow_flex_r	pro_sup_r	arm_flex_l	arm_add_l	arm_rot_l	elbow_flex_l	pro_sup_l
      5.23333330	     -2.58344261	      1.25978598	      2.73770073	      0.49285362	      0.90945223	     -0.08931913	     -1.45220066	     -3.95811361	      1.67435383	      1.53684490	      0.02682300	     15.70088374	      2.09296641	     -7.49999987	      1.87711853	     -3.94502624	     -2.69579645	      2.45150004	      0.04278675	      9.35748337	      5.40253757	     -7.49999987	     -2.26167524	      3.21717204	     -0.58868121	      5.47261221	    -13.33730906	      9.66766602	     44.24532141	     71.90770197	      1.85080030	    -10.92700098	      8.99367526	     27.37412782	     60.73219909
      5.25000000	     -2.19846158	      1.31299271	      2.62111748	      0.48753520	      0.91386077	     -0.09129840	     -1.85879304	     -4.12679842	      1.99365994	      1.44635954	      0.02524374	     15.88918476	      1.93195420	     -7.49999987	      1.33033122	     -3.80640151	     -2.77321646	      2.17355175	      0.03793563	      9.47904660	      5.12216501	     -7.49999987	     -2.20203516	      3.14437640	     -0.25089083	      4.50981000	    -13.30479129	      9.23066767	     41.30331668	     72.35704493	      1.17760619	    -10.47900460	     10.00153550	     24.86347057	     61.29622051
      5.26666670	     -1.92765371	      1.30782690	      2.58485258	      0.48312843	      0.91432660	     -0.08786256	     -1.98042282	     -4.14126072	      2.34446342	      1.30006759	      0.02269046	     16.09651219	      1.62074837	     -7.49999987	      1.04590201	     -3.79378578	     -2.75686819	      1.89149317	      0.03301278	      9.74211952	      5.12339905	     -7.49999987	     -2.24758577	      3.04009085	      0.02594341	      3.98487090	    -12.89128357	      8.98873266	     37.80633328	     72.85676910	      1.03251470	    -10.17615888	     11.09378511	     22.19006125	     61.94538147
      5.28333330	     -1.79481678	      1.26782685	      2.67052046	      0.48735709	      0.91620766	     -0.08550052	     -2.07194413	     -4.02674785	      2.59474941	      1.21460832	      0.02119891	     16.04816692	      1.41798688	     -7.49999987	      0.88986970	     -3.87013954	     -2.63619829	      1.64945956	      0.02878850	      9.85216605	      5.32596661	     -7.49999987	     -2.10297546	      2.89651715	      0.02668408	      3.04113917	    -12.37439403	      8.79724102	     34.20295458	     73.48828863	      0.51783785	     -9.96581113	     12.01671199	     19.62581750	     62.69333114
      5.30000000	     -1.52828559	      1.26662712	      2.77828317	      0.48266881	      0.91428963	     -0.08784898	     -2.24693254	     -4.01517150	      2.72533232	      1.31027125	      0.02286855	     16.15146592	      1.37269630	     -7.49999987	      0.83037686	     -3.86888501	     -2.58337097	      1.74597996	      0.03047310	      9.98843029	      5.25788898	     -7.49999987	     -2.47202182	      2.85280709	      0.13847637	      1.72062754	    -12.37815817	      8.81866163	     33.33767952	     73.51363134	     -0.66440927	     -9.59569544	     12.08338208	     19.09248155	     62.72074847
      5.31666670	     -1.42311727	      1.25447023	      2.84253558	      0.48713939	      0.91834440	     -0.08552090	     -2.42230178	     -3.92422179	      3.01779008	      1.21221620	      0.02115716	     15.91295239	      0.98913015	     -7.49999987	      0.78786819	     -3.93941921	     -2.51542379	      1.68248975	      0.02936499	     10.03080588	      5.31333130	     -7.49999987	     -2.24459430	      2.71493781	      0.74454916	      1.23708887	    -11.74038906	      8.00880812	     29.12846719	     73.64081915	     -0.79683915	     -8.81928398	     11.86838417	     16.51713831	     62.92671281
      5.33333330	     -1.35802567	      1.23800439	      3.05746076	      0.48725031	      0.92514308	     -0.08572153	     -2.61710397	     -3.84602188	      2.96775253	      1.11533345	      0.01946624	     15.62209283	      0.96338225	     -7.49999987	      0.82895693	     -3.98896091	     -2.46030931	      1.71863444	      0.02999583	      9.93544202	      5.45799788	     -7.49999987	     -2.15345533	      2.63408625	      0.93618116	      0.47697115	    -11.21454237	      7.64683420	     26.61847770	     73.83663948	     -1.26288821	     -8.16364395	     11.66548105	     15.03371233	     63.18322894
      5.35000000	     -1.25284379	      1.23218695	      3.13678605	      0.48705418	      0.92505629	     -0.08581254	     -2.83784966	     -3.79649683	      2.84980079	      1.04328884	      0.01820883	     15.29846582	      0.98480295	     -7.49999987	      0.74084886	     -4.04823332	     -2.59573521	      1.82204938	      0.03180076	      9.62623581	      5.71693000	     -7.49999987	     -2.08434144	      2.44505569	      0.93111622	     -0.46356173	    -10.58474538	      6.85404357	     23.46257524	     76.44450512	     -1.83610987	     -7.61749524	      8.91538175	     14.20203253	     67.72443579
      5.36666670	     -1.14373852	      1.22398555	      3.32029933	      0.48745552	      0.92905035	     -0.08636438	     -3.11979553	     -3.75242379	      2.66036028	      0.89881564	      0.01568729	     14.86646187	      0.94088926	     -7.49999987	      0.65753279	     -4.09336997	     -2.72294245	      1.87470093	      0.03271970	      9.17316804	      5.97697437	     -7.49999987	     -1.94824425	      2.39201343	      1.02732511	     -1.46143932	    -10.18388872	      6.09735071	     21.08908413	     76.37592316	     -2.10617173	     -7.14380959	      8.02568927	     13.57361765	     68.70683430
      5.38333330	     -1.08081975	      1.18453262	      3.55047415	      0.48717612	      0.92613749	     -0.08668653	     -3.30636604	     -3.67978465	      2.50083750	      0.77406492	      0.01350998	     14.45214546	      0.81974462	     -7.49999987	      0.60421351	     -4.16124750	     -2.84864288	      1.86263280	      0.03250908	      8.79115459	      6.23951640	     -7.49999987	     -1.73691806	      2.40861917	      0.98197907	     -2.23737276	    -10.18111832	      7.90641649	     19.35555954	     71.91440808	     -2.63353921	     -6.83557760	      9.31695197	     13.29354143	     66.32698820
      5.40000000	     -0.96068771	      1.15347462	      3.73613246	      0.48663080	      0.92973003	     -0.08637417	     -3.51223671	     -3.59242880	      2.10853587	      0.71480319	      0.01247567	     14.14473999	      1.00720954	     -7.49999987	      0.45465068	     -4.22530107	     -2.86866069	      1.78478935	      0.03115045	      8.32295612	      6.51546770	     -7.49999987	     -1.62373672	      2.40689644	      1.10271369	     -3.14099905	     -9.94004514	      5.15613109	     18.66580605	     76.39894476	     -3.04820684	     -6.25930934	      7.63051238	     12.85781606	     69.41851434
      5.41666670	     -0.80376238	      1.11865958	      3.97329317	      0.48651450	      0.92730208	     -0.08670868	     -3.74103892	     -3.50065495	      1.87569421	      0.65848152	      0.01149267	     13.87579324	      0.88821011	     -7.49999987	      0.28655330	     -4.27998271	     -2.88532069	      1.71574524	      0.02994540	      8.02292090	      6.70470723	     -7.49999987	     -1.61362288	      2.47541569	      1.15895060	     -3.92732616	     -9.85279724	      3.59290101	     18.30397492	     77.35062406	     -3.49171214	     -5.79477251	      6.42806094	     12.55902058	     70.49616557
      5.43333330	     -0.69136355	      1.07513933	      4.09558911	      0.48613920	      0.92858346	     -0.08666145	     -3.83527571	     -3.45635075	      1.68491539	      0.62600706	      0.01092588	     13.80599032	      0.77774606	     -7.49999987	      0.13781774	     -4.33983728	     -2.77129108	      1.61713218	      0.02822428	      7.87135376	      6.93951115	     -7.49999987	     -1.66042292	      2.51893261	      1.13729741	     -4.31784163	     -9.89480714	      3.54715671	     17.92054337	     76.83689957	     -3.80062872	     -5.52275585	      6.30500003	     12.41982904	     70.50007303
      5.45000000	     -0.49348133	      1.01290808	      4.23553616	      0.48656495	      0.92688954	     -0.08746319	     -4.01877248	     -3.39039382	      1.60293071	      0.58378142	      0.01018891	     13.90325872	      0.58622883	     -7.49999987	     -0.06316683	     -4.40235201	     -2.82590348	      1.55302176	      0.02710534	      7.86312522	      7.06139206	     -7.49999987	     -1.85951045	      2.58475667	      1.13767399	     -4.50928798	    -10.01800755	      4.66269802	     17.67996075	     73.78917486	     -3.96468850	     -5.45119320	      7.02123868	     12.60057294	     68.49766226
      5.46666670	     -0.25505400	      0.98136883	      4.36744507	      0.48671240	      0.92648168	     -0.08768267	     -4.27755946	     -3.34102918	      1.47775340	      0.60577310	      0.01057274	     13.99360516	      0.53337674	     -7.49999987	     -0.28808101	     -4.44501802	     -2.83951039	      1.56345891	      0.02728751	      7.92317718	      7.29087527	     -7.49999987	     -2.20819835	      2.63678248	      1.09530293	     -4.77903958	     -9.96175306	      3.92092611	     18.15054249	     69.03626568	     -3.98819794	     -5.35604790	      6.52278516	     13.09162557	     65.18715276
      5.48333330	     -0.20409220	      0.97394785	      4.55943214	      0.48619671	      0.92837920	     -0.08767486	     -4.35863379	     -3.31760868	      1.33359871	      0.60098693	      0.01048920	     13.91375890	      0.27872752	     -7.49999987	     -0.24043885	     -4.45266985	     -2.66859134	      1.67792463	      0.02928531	      7.87018755	      7.28703533	     -7.49999987	     -2.31123414	      2.60952894	      1.14924382	     -4.98479029	     -9.88037367	      1.68014382	     18.31234470	     76.76008887	     -3.61329717	     -5.33887866	      4.38338394	     13.12006396	     71.17461766
      5.50000000	     -0.09042856	      0.99029311	      4.72978118	      0.48557831	      0.92726992	     -0.08748011	     -4.50651079	     -3.33224825	      1.15612905	      0.58557698	      0.01022025	     13.83811855	      0.12480018	     -7.49999987	     -0.21921702	     -4.43265255	     -2.62997100	      1.77223058	      0.03093126	      7.84834437	      7.34493037	     -7.49999987	     -2.55414127	      2.56149803	      1.16518863	     -5.07762627	     -9.92856951	      1.70749072	     18.54300691	     76.01874907	     -3.27062181	     -5.48801932	      4.05923220	     13.67978930	     71.13083599
      5.51666670	     -0.03676112	      1.00494950	      4.81590354	      0.48555502	      0.92534016	     -0.08778926	     -4.59058085	     -3.33753641	      1.10453515	      0.60770053	      0.01060638	     13.61662045	     -0.19729203	     -7.49999987	     -0.18849594	     -4.41956028	     -2.63718675	      1.82029348	      0.03177011	      7.92821953	      7.62261963	     -7.49999987	     -2.73351339	      2.50051613	      1.04375328	     -4.98624163	     -9.92744023	      1.26055190	     18.73693025	     75.98809000	     -2.90548470	     -5.56820274	      2.99004555	     13.95090421	     71.49695618
      5.53333330	     -0.05019010	      1.00870020	      4.82813632	      0.48583820	      0.92916554	     -0.08781025	     -4.55348218	     -3.32781327	      1.10815605	      0.62591476	      0.01092427	     13.43050174	     -0.23751470	     -7.49999987	     -0.18436997	     -4.39418258	     -2.59213246	      1.74750326	      0.03049969	      7.88038294	      7.74924524	     -7.49999987	     -2.88571166	      2.47639005	      1.07066871	     -4.79663102	    -10.17161575	      3.20271133	     19.02199254	     72.39123565	     -2.63266348	     -5.78513001	      4.31375331	     14.70011865	     68.70105066
